<?xml version="1.0" encoding="UTF-8"?>
<svg width="34px" height="27px" viewBox="0 0 34 27" version="1.1" xmlns="http://www.w3.org/2000/svg" xmlns:xlink="http://www.w3.org/1999/xlink">
    <!-- Generator: Sketch 58 (84663) - https://sketch.com -->
    <title>指令集Logo</title>
    <desc>Created with Sketch.</desc>
    <g id="页面-1" stroke="none" stroke-width="1" fill="none" fill-rule="evenodd">
        <g id="左侧菜单栏样式定义" transform="translate(-24.000000, -19.000000)" fill="#FFFFFF">
            <g id="左侧菜单栏备份-2">
                <g id="编组" transform="translate(24.000000, 19.000000)">
                    <path d="M22.4803072,0 C23.9503215,0 25.290562,0.63033954 26.0686382,1.68784228 L33.3620399,11.5980285 C34.2126534,12.753012 34.2126534,14.2458927 33.3620399,15.4019715 L26.0686382,25.3121577 C25.290562,26.3691128 23.9503215,27 22.482574,27 L22.4763404,27 C21.0063261,26.9983571 19.6649522,26.364184 18.8897095,25.303943 L11.6405103,15.3932092 C10.7864966,14.2250821 10.7864966,12.7743702 11.6405103,11.6067908 L18.8897095,1.69550931 C19.6649522,0.635815991 21.0063261,0.00164293538 22.4763404,0 L22.4803072,0 Z M11.338434,0 C12.7895073,0 14.1146679,0.632059396 14.8841341,1.69023856 L14.8841341,1.69023856 L16,3.22657011 L14.2181961,5.71372931 L12.3020854,3.07649708 C12.0010143,2.66297468 11.528702,2.61751461 11.3378743,2.61751461 L11.3378743,2.61751461 C11.1470467,2.61751461 10.6736152,2.66297468 10.3731037,3.07923564 L10.3731037,3.07923564 L3.2190268,12.9851509 C2.99014559,13.3011806 2.99014559,13.6944377 3.2190268,14.0110151 L3.2190268,14.0110151 L10.3775806,23.9229552 C10.6758536,24.3370253 11.1476063,24.3824854 11.3367551,24.3824854 L11.3367551,24.3824854 C11.5281424,24.3824854 11.9982162,24.337573 12.2976085,23.9256938 L12.2976085,23.9256938 L14.1913348,21.3196811 L15.9916058,23.7821933 L14.8796572,25.3119523 C14.1113103,26.3695837 12.7878284,27 11.338434,27 L11.338434,27 C9.8806453,26.9978092 8.55660386,26.3635589 7.79049534,25.3031889 L7.79049534,25.3031889 L0.632501202,15.3917965 C-0.210833734,14.2235273 -0.210833734,12.7726388 0.632501202,11.6049172 L0.632501202,11.6049172 L7.78657806,1.69900195 C8.55268657,0.636988802 9.87840686,0.00164313535 11.3345167,0 L11.3345167,0 Z M22.4820073,2.61664841 L22.4803072,2.61664841 C22.2893301,2.61664841 21.8116038,2.66210296 21.5089871,3.07667032 L14.2597879,12.9874042 C14.0285751,13.3033954 14.0285751,13.696057 14.2597879,14.0131435 L21.5089871,23.9233297 C21.8116038,24.3373494 22.2893301,24.3828039 22.4803072,24.3828039 L22.4820073,24.3828039 C22.6746846,24.3828039 23.1507108,24.337897 23.4538942,23.9260679 L30.7478626,14.0147864 C30.9779419,13.7020811 30.9779419,13.2979189 30.7478626,12.9852136 L23.4538942,3.07393209 C23.1507108,2.66155531 22.6746846,2.61664841 22.4820073,2.61664841 Z M22.661186,12.0914062 L23.4709063,13.3971403 C23.5096979,13.460024 23.5096979,13.5395269 23.4709063,13.6028597 L22.661186,14.9085938 C22.5853862,15.0307678 22.4088173,15.0303186 22.3339093,14.9081446 L21.5290937,13.6024105 C21.4903021,13.5395269 21.4903021,13.4604731 21.5290937,13.3975895 L22.3339093,12.0918554 C22.4088173,11.9696814 22.5853862,11.9692322 22.661186,12.0914062 Z" id="指令集Logo"></path>
                </g>
            </g>
        </g>
    </g>
</svg>