<?xml version="1.0" standalone="no"?><!DOCTYPE svg PUBLIC "-//W3C//DTD SVG 1.1//EN" "http://www.w3.org/Graphics/SVG/1.1/DTD/svg11.dtd"><svg t="1569588374679" class="icon" viewBox="0 0 1024 1024" version="1.1" xmlns="http://www.w3.org/2000/svg" p-id="4495" xmlns:xlink="http://www.w3.org/1999/xlink" width="128" height="128"><defs><style type="text/css"></style></defs><path d="M829.44 554.24l-0.426667 0.853333c1.706667-14.08 3.413333-28.586667 3.413334-43.093333 0-14.506667-1.28-28.16-2.986667-42.24l0.426667 0.853333 104.106666-81.92-103.68-180.053333-122.453333 49.493333 0.426667 0.426667c-22.186667-17.066667-46.506667-31.573333-72.96-42.666667h0.426666L616.106667 85.333333H408.32l-18.773333 130.986667h0.426666c-26.453333 11.093333-50.773333 25.6-72.96 42.666667l0.426667-0.426667-122.88-49.92-104.106667 180.053333 104.106667 81.92 0.426667-0.853333c-1.706667 14.08-2.986667 27.733333-2.986667 42.24 0 14.506667 1.28 29.013333 3.413333 43.093333l-0.426666-0.853333-89.6 70.4-14.08 11.093333 103.68 179.2 122.88-49.066666-0.853334-1.706667c22.613333 17.493333 46.933333 32 73.813334 43.093333h-1.28L408.746667 938.666667h206.933333s1.28-7.68 2.56-17.92l16.213333-113.066667h-0.426666c26.453333-11.093333 51.2-25.6 73.813333-43.093333l-0.853333 1.706666 122.88 49.066667 103.68-179.2s-5.973333-5.12-14.08-11.093333l-90.026667-70.826667zM512 661.333333c-82.346667 0-149.333333-66.986667-149.333333-149.333333s66.986667-149.333333 149.333333-149.333333 149.333333 66.986667 149.333333 149.333333-66.986667 149.333333-149.333333 149.333333z" p-id="4496"></path></svg>
