<?xml version="1.0" encoding="UTF-8"?>
<svg width="24px" height="24px" viewBox="0 0 24 24" version="1.1" xmlns="http://www.w3.org/2000/svg" xmlns:xlink="http://www.w3.org/1999/xlink">
    <!-- Generator: Sketch 54 (76480) - https://sketchapp.com -->
    <title>园区管理icon</title>
    <desc>Created with Sketch.</desc>
    <g id="园区管理icon" stroke="none" stroke-width="1" fill="none" fill-rule="evenodd">
        <g id="园区设置" transform="translate(2.000000, 2.000000)" fill="#686E82" fill-rule="nonzero">
            <path d="M18.2473298,7.4021595 L12.7236374,6.10917709 C12.5880805,6.07738562 12.4521175,6.07383815 12.3215362,6.09017974 L12.3215362,1.87608452 C12.6188474,1.64672068 12.786288,1.28044029 12.7236374,0.894716687 C12.6295091,0.318069789 12.0624043,-0.0769004731 11.4593541,0.0126584369 L0.948083739,1.57416247 C0.34340884,1.66414784 -0.0694962803,2.20431208 0.0239617982,2.7805325 C0.0686397037,3.05225265 0.218209159,3.28115126 0.426367613,3.4402443 L0.426367613,19.2142032 C0.426367613,19.5781574 0.7353966,19.8743608 1.11790043,19.8743608 L11.6301252,19.8743608 L17.8595256,19.8743608 C18.2412171,19.8743608 18.5512209,19.5781574 18.5512209,19.2142032 L18.5512209,9.33232829 C18.7953247,9.19265906 18.985612,8.96533065 19.0587213,8.68007974 C19.2044322,8.11271827 18.8411399,7.54115027 18.2473298,7.4021595 L18.2473298,7.4021595 Z M10.6750536,2.3350121 L10.6750536,7.66694358 L10.6750536,18.3066998 L7.38669065,18.3066816 L7.38669065,7.66694358 L5.36167243,7.66694358 L5.36167243,18.3066998 L2.0728502,18.3066998 L2.0728502,3.61274211 L10.6750536,2.3350121 Z M15.3302175,18.3651228 L15.3302175,13.2141793 L14.1589378,13.2141793 L14.1589378,18.3651228 L12.5167562,18.3651228 L12.5167562,8.06323583 L16.9720069,9.02010171 L16.9723056,18.3651228 L15.3302175,18.3651228 Z" id="形状"></path>
        </g>
    </g>
</svg>